<?xml version="1.0" encoding="utf-8" standalone="no"?>
<!DOCTYPE svg PUBLIC "-//W3C//DTD SVG 1.1//EN"
  "http://www.w3.org/Graphics/SVG/1.1/DTD/svg11.dtd">
<svg xmlns:xlink="http://www.w3.org/1999/xlink" width="504.566929pt" height="240.944882pt" viewBox="0 0 504.566929 240.944882" xmlns="http://www.w3.org/2000/svg" version="1.1">
 <metadata>
  <rdf:RDF xmlns:dc="http://purl.org/dc/elements/1.1/" xmlns:cc="http://creativecommons.org/ns#" xmlns:rdf="http://www.w3.org/1999/02/22-rdf-syntax-ns#">
   <cc:Work>
    <dc:type rdf:resource="http://purl.org/dc/dcmitype/StillImage"/>
    <dc:date>2026-07-14T13:32:46.378732</dc:date>
    <dc:format>image/svg+xml</dc:format>
    <dc:creator>
     <cc:Agent>
      <dc:title>Matplotlib v3.10.8, https://matplotlib.org/</dc:title>
     </cc:Agent>
    </dc:creator>
   </cc:Work>
  </rdf:RDF>
 </metadata>
 <defs>
  <style type="text/css">*{stroke-linejoin: round; stroke-linecap: butt}</style>
 </defs>
 <g id="figure_1">
  <g id="patch_1">
   <path d="M 0 240.944882 
L 504.566929 240.944882 
L 504.566929 0 
L 0 0 
z
" style="fill: #ffffff"/>
  </g>
  <g id="axes_1">
   <g id="patch_2">
    <path d="M 34.54899 198.093912 
L 262.6576 198.093912 
L 262.6576 18.959459 
L 34.54899 18.959459 
z
" style="fill: #ffffff"/>
   </g>
   <g id="matplotlib.axis_1">
    <g id="xtick_1">
     <g id="line2d_1">
      <defs>
       <path id="m9f55d4eed4" d="M 0 0 
L 0 4.8 
" style="stroke: #262626"/>
      </defs>
      <g>
       <use xlink:href="#m9f55d4eed4" x="44.592102" y="198.093912" style="fill: #262626; stroke: #262626"/>
      </g>
     </g>
     <g id="text_1">
      <text style="font-size: 12px; font-family: 'Arial', 'DejaVu Sans', 'Liberation Sans', 'Bitstream Vera Sans', sans-serif; text-anchor: middle; fill: #262626" x="44.592102" y="215.512037" transform="rotate(-0 44.592102 215.512037)">0.0</text>
     </g>
    </g>
    <g id="xtick_2">
     <g id="line2d_2">
      <g>
       <use xlink:href="#m9f55d4eed4" x="102.413419" y="198.093912" style="fill: #262626; stroke: #262626"/>
      </g>
     </g>
     <g id="text_2">
      <text style="font-size: 12px; font-family: 'Arial', 'DejaVu Sans', 'Liberation Sans', 'Bitstream Vera Sans', sans-serif; text-anchor: middle; fill: #262626" x="102.413419" y="215.512037" transform="rotate(-0 102.413419 215.512037)">0.1</text>
     </g>
    </g>
    <g id="xtick_3">
     <g id="line2d_3">
      <g>
       <use xlink:href="#m9f55d4eed4" x="160.234735" y="198.093912" style="fill: #262626; stroke: #262626"/>
      </g>
     </g>
     <g id="text_3">
      <text style="font-size: 12px; font-family: 'Arial', 'DejaVu Sans', 'Liberation Sans', 'Bitstream Vera Sans', sans-serif; text-anchor: middle; fill: #262626" x="160.234735" y="215.512037" transform="rotate(-0 160.234735 215.512037)">0.2</text>
     </g>
    </g>
    <g id="xtick_4">
     <g id="line2d_4">
      <g>
       <use xlink:href="#m9f55d4eed4" x="218.056052" y="198.093912" style="fill: #262626; stroke: #262626"/>
      </g>
     </g>
     <g id="text_4">
      <text style="font-size: 12px; font-family: 'Arial', 'DejaVu Sans', 'Liberation Sans', 'Bitstream Vera Sans', sans-serif; text-anchor: middle; fill: #262626" x="218.056052" y="215.512037" transform="rotate(-0 218.056052 215.512037)">0.3</text>
     </g>
    </g>
   </g>
   <g id="matplotlib.axis_2">
    <g id="ytick_1">
     <g id="line2d_5">
      <defs>
       <path id="m9504ea2ea0" d="M 0 0 
L -4.8 0 
" style="stroke: #262626"/>
      </defs>
      <g>
       <use xlink:href="#m9504ea2ea0" x="34.54899" y="152.034139" style="fill: #262626; stroke: #262626"/>
      </g>
     </g>
     <g id="text_5">
      <text style="font-size: 12px; font-family: 'Arial', 'DejaVu Sans', 'Liberation Sans', 'Bitstream Vera Sans', sans-serif; text-anchor: end; fill: #262626" x="26.24899" y="156.593201" transform="rotate(-0 26.24899 156.593201)">0</text>
     </g>
    </g>
    <g id="ytick_2">
     <g id="line2d_6">
      <g>
       <use xlink:href="#m9504ea2ea0" x="34.54899" y="105.008394" style="fill: #262626; stroke: #262626"/>
      </g>
     </g>
     <g id="text_6">
      <text style="font-size: 12px; font-family: 'Arial', 'DejaVu Sans', 'Liberation Sans', 'Bitstream Vera Sans', sans-serif; text-anchor: end; fill: #262626" x="26.24899" y="109.567456" transform="rotate(-0 26.24899 109.567456)">2</text>
     </g>
    </g>
    <g id="ytick_3">
     <g id="line2d_7">
      <g>
       <use xlink:href="#m9504ea2ea0" x="34.54899" y="57.982649" style="fill: #262626; stroke: #262626"/>
      </g>
     </g>
     <g id="text_7">
      <text style="font-size: 12px; font-family: 'Arial', 'DejaVu Sans', 'Liberation Sans', 'Bitstream Vera Sans', sans-serif; text-anchor: end; fill: #262626" x="26.24899" y="62.541711" transform="rotate(-0 26.24899 62.541711)">4</text>
     </g>
    </g>
    <g id="text_8">
     <text style="font-size: 12px; font-family: 'Arial', 'DejaVu Sans', 'Liberation Sans', 'Bitstream Vera Sans', sans-serif; text-anchor: middle; fill: #262626" x="12.118365" y="108.526685" transform="rotate(-90 12.118365 108.526685)">Mean CDR3 Contacts</text>
    </g>
   </g>
   <g id="PathCollection_1">
    <defs>
     <path id="m627cd3c125" d="M 0 2.4 
C 0.636487 2.4 1.246992 2.147121 1.697056 1.697056 
C 2.147121 1.246992 2.4 0.636487 2.4 0 
C 2.4 -0.636487 2.147121 -1.246992 1.697056 -1.697056 
C 1.246992 -2.147121 0.636487 -2.4 0 -2.4 
C -0.636487 -2.4 -1.246992 -2.147121 -1.697056 -1.697056 
C -2.147121 -1.246992 -2.4 -0.636487 -2.4 0 
C -2.4 0.636487 -2.147121 1.246992 -1.697056 1.697056 
C -1.246992 2.147121 -0.636487 2.4 0 2.4 
z
" style="stroke: #000000; stroke-opacity: 0.8"/>
    </defs>
    <g clip-path="url(#p86b9ad06ce)">
     <use xlink:href="#m627cd3c125" x="45.494407" y="138.761319" style="fill-opacity: 0.8; stroke: #000000; stroke-opacity: 0.8"/>
     <use xlink:href="#m627cd3c125" x="67.613895" y="133.516414" style="fill-opacity: 0.8; stroke: #000000; stroke-opacity: 0.8"/>
     <use xlink:href="#m627cd3c125" x="124.294384" y="109.040191" style="fill-opacity: 0.8; stroke: #000000; stroke-opacity: 0.8"/>
     <use xlink:href="#m627cd3c125" x="231.979517" y="27.101934" style="fill-opacity: 0.8; stroke: #000000; stroke-opacity: 0.8"/>
     <use xlink:href="#m627cd3c125" x="252.289026" y="37.609583" style="fill-opacity: 0.8; stroke: #000000; stroke-opacity: 0.8"/>
     <use xlink:href="#m627cd3c125" x="239.265947" y="106.417739" style="fill-opacity: 0.8; stroke: #000000; stroke-opacity: 0.8"/>
     <use xlink:href="#m627cd3c125" x="187.172417" y="145.611807" style="fill-opacity: 0.8; stroke: #000000; stroke-opacity: 0.8"/>
     <use xlink:href="#m627cd3c125" x="176.066533" y="151.035109" style="fill-opacity: 0.8; stroke: #000000; stroke-opacity: 0.8"/>
     <use xlink:href="#m627cd3c125" x="44.917563" y="152.034139" style="fill-opacity: 0.8; stroke: #000000; stroke-opacity: 0.8"/>
    </g>
   </g>
   <g id="FillBetweenPolyCollection_1">
    <defs>
     <path id="mce82e99a19" d="M 44.917563 -104.201922 
L 44.917563 -50.993445 
L 47.012224 -52.314858 
L 49.106886 -53.639832 
L 51.201547 -54.921996 
L 53.296208 -56.113128 
L 55.390869 -57.304259 
L 57.485531 -58.495391 
L 59.580192 -59.686523 
L 61.674853 -60.877654 
L 63.769514 -62.068786 
L 65.864176 -63.259918 
L 67.958837 -64.451049 
L 70.053498 -65.642181 
L 72.148159 -66.833313 
L 74.242821 -68.024444 
L 76.337482 -69.215576 
L 78.432143 -70.406707 
L 80.526804 -71.623089 
L 82.621466 -72.882148 
L 84.716127 -74.141206 
L 86.810788 -75.163387 
L 88.905449 -76.345838 
L 91.000111 -77.528289 
L 93.094772 -78.710739 
L 95.189433 -79.89319 
L 97.284094 -81.081733 
L 99.378756 -82.274124 
L 101.473417 -83.466515 
L 103.568078 -84.665899 
L 105.662739 -86.012906 
L 107.757401 -87.637629 
L 109.852062 -88.61518 
L 111.946723 -89.592731 
L 114.041384 -90.625234 
L 116.136045 -91.813253 
L 118.230707 -92.974982 
L 120.325368 -94.027246 
L 122.420029 -94.828521 
L 124.51469 -95.476862 
L 126.609352 -96.391022 
L 128.704013 -97.51019 
L 130.798674 -98.264621 
L 132.893335 -98.455295 
L 134.987997 -99.124791 
L 137.082658 -99.169145 
L 139.177319 -99.603136 
L 141.27198 -99.948042 
L 143.366642 -100.090315 
L 145.461303 -100.772215 
L 147.555964 -101.084756 
L 149.650625 -101.424343 
L 151.745287 -101.655597 
L 153.839948 -101.554143 
L 155.934609 -101.55914 
L 158.02927 -102.276239 
L 160.123932 -103.059206 
L 162.218593 -103.184383 
L 164.313254 -103.30956 
L 166.407915 -103.341322 
L 168.502577 -103.421962 
L 170.597238 -103.291552 
L 172.691899 -103.167498 
L 174.78656 -103.200859 
L 176.881222 -103.310579 
L 178.975883 -103.316019 
L 181.070544 -103.200232 
L 183.165205 -103.085562 
L 185.259867 -103.051478 
L 187.354528 -103.894478 
L 189.449189 -105.113453 
L 191.54385 -105.649375 
L 193.638512 -106.327324 
L 195.733173 -106.55871 
L 197.827834 -106.790097 
L 199.922495 -107.021484 
L 202.017157 -107.25287 
L 204.111818 -107.484257 
L 206.206479 -107.715643 
L 208.30114 -107.634304 
L 210.395802 -107.499273 
L 212.490463 -107.364242 
L 214.585124 -107.229211 
L 216.679785 -107.09418 
L 218.774446 -106.959149 
L 220.869108 -106.824118 
L 222.963769 -106.905927 
L 225.05843 -107.017956 
L 227.153091 -107.129986 
L 229.247753 -107.242015 
L 231.342414 -107.354045 
L 233.437075 -107.466075 
L 235.531736 -107.578104 
L 237.626398 -107.690134 
L 239.721059 -107.802163 
L 241.81572 -107.914193 
L 243.910381 -108.026222 
L 246.005043 -108.138252 
L 248.099704 -108.250282 
L 250.194365 -108.362311 
L 252.289026 -108.474341 
L 252.289026 -207.76424 
L 252.289026 -207.76424 
L 250.194365 -206.583585 
L 248.099704 -205.439267 
L 246.005043 -204.160441 
L 243.910381 -202.856752 
L 241.81572 -201.553063 
L 239.721059 -200.263481 
L 237.626398 -199.021768 
L 235.531736 -197.778839 
L 233.437075 -196.53591 
L 231.342414 -195.292981 
L 229.247753 -194.071224 
L 227.153091 -192.879193 
L 225.05843 -191.687162 
L 222.963769 -190.495131 
L 220.869108 -189.302477 
L 218.774446 -188.105767 
L 216.679785 -186.726597 
L 214.585124 -185.522047 
L 212.490463 -184.317498 
L 210.395802 -183.111048 
L 208.30114 -181.902715 
L 206.206479 -180.591325 
L 204.111818 -179.41155 
L 202.017157 -178.231775 
L 199.922495 -177.052 
L 197.827834 -175.872225 
L 195.733173 -174.673736 
L 193.638512 -173.508035 
L 191.54385 -172.337856 
L 189.449189 -171.161989 
L 187.354528 -169.982549 
L 185.259867 -168.897072 
L 183.165205 -167.81953 
L 181.070544 -166.64964 
L 178.975883 -165.461075 
L 176.881222 -164.270453 
L 174.78656 -163.172066 
L 172.691899 -162.086504 
L 170.597238 -160.876625 
L 168.502577 -159.666746 
L 166.407915 -158.53446 
L 164.313254 -157.47379 
L 162.218593 -156.413119 
L 160.123932 -155.352448 
L 158.02927 -154.291778 
L 155.934609 -153.231107 
L 153.839948 -152.170436 
L 151.745287 -151.109766 
L 149.650625 -150.049095 
L 147.555964 -148.988424 
L 145.461303 -147.927754 
L 143.366642 -146.867083 
L 141.27198 -145.806412 
L 139.177319 -144.745742 
L 137.082658 -143.686763 
L 134.987997 -142.6244 
L 132.893335 -141.56373 
L 130.798674 -140.503059 
L 128.704013 -139.442388 
L 126.609352 -138.273243 
L 124.51469 -137.098399 
L 122.420029 -135.947331 
L 120.325368 -134.887126 
L 118.230707 -133.746782 
L 116.136045 -132.519714 
L 114.041384 -131.431401 
L 111.946723 -130.323673 
L 109.852062 -129.26707 
L 107.757401 -128.207092 
L 105.662739 -127.1666 
L 103.568078 -126.082651 
L 101.473417 -124.99777 
L 99.378756 -123.957965 
L 97.284094 -122.906186 
L 95.189433 -121.859556 
L 93.094772 -120.789651 
L 91.000111 -119.721709 
L 88.905449 -118.671895 
L 86.810788 -117.56304 
L 84.716127 -116.553518 
L 82.621466 -115.496238 
L 80.526804 -114.560057 
L 78.432143 -113.564669 
L 76.337482 -112.559218 
L 74.242821 -111.660382 
L 72.148159 -110.853305 
L 70.053498 -109.884552 
L 67.958837 -109.270584 
L 65.864176 -108.658552 
L 63.769514 -108.220652 
L 61.674853 -107.601561 
L 59.580192 -107.240733 
L 57.485531 -106.81912 
L 55.390869 -106.338377 
L 53.296208 -105.751016 
L 51.201547 -105.219941 
L 49.106886 -104.947342 
L 47.012224 -104.430512 
L 44.917563 -104.201922 
z
" style="stroke: #ffffff; stroke-opacity: 0.15; stroke-width: 0.8"/>
    </defs>
    <g clip-path="url(#p86b9ad06ce)">
     <use xlink:href="#mce82e99a19" x="0" y="240.944882" style="fill-opacity: 0.15; stroke: #ffffff; stroke-opacity: 0.15; stroke-width: 0.8"/>
    </g>
   </g>
   <g id="line2d_8">
    <path d="M 44.917563 151.943546 
L 47.012224 151.148169 
L 49.106886 150.352792 
L 51.201547 149.557415 
L 53.296208 148.762039 
L 55.390869 147.966662 
L 57.485531 147.171285 
L 59.580192 146.375909 
L 61.674853 145.580532 
L 63.769514 144.785155 
L 65.864176 143.989778 
L 67.958837 143.194402 
L 70.053498 142.399025 
L 72.148159 141.603648 
L 74.242821 140.808271 
L 76.337482 140.012895 
L 78.432143 139.217518 
L 80.526804 138.422141 
L 82.621466 137.626765 
L 84.716127 136.831388 
L 86.810788 136.036011 
L 88.905449 135.240634 
L 91.000111 134.445258 
L 93.094772 133.649881 
L 95.189433 132.854504 
L 97.284094 132.059128 
L 99.378756 131.263751 
L 101.473417 130.468374 
L 103.568078 129.672997 
L 105.662739 128.877621 
L 107.757401 128.082244 
L 109.852062 127.286867 
L 111.946723 126.491491 
L 114.041384 125.696114 
L 116.136045 124.900737 
L 118.230707 124.10536 
L 120.325368 123.309984 
L 122.420029 122.514607 
L 124.51469 121.71923 
L 126.609352 120.923854 
L 128.704013 120.128477 
L 130.798674 119.3331 
L 132.893335 118.537723 
L 134.987997 117.742347 
L 137.082658 116.94697 
L 139.177319 116.151593 
L 141.27198 115.356216 
L 143.366642 114.56084 
L 145.461303 113.765463 
L 147.555964 112.970086 
L 149.650625 112.17471 
L 151.745287 111.379333 
L 153.839948 110.583956 
L 155.934609 109.788579 
L 158.02927 108.993203 
L 160.123932 108.197826 
L 162.218593 107.402449 
L 164.313254 106.607073 
L 166.407915 105.811696 
L 168.502577 105.016319 
L 170.597238 104.220942 
L 172.691899 103.425566 
L 174.78656 102.630189 
L 176.881222 101.834812 
L 178.975883 101.039436 
L 181.070544 100.244059 
L 183.165205 99.448682 
L 185.259867 98.653305 
L 187.354528 97.857929 
L 189.449189 97.062552 
L 191.54385 96.267175 
L 193.638512 95.471798 
L 195.733173 94.676422 
L 197.827834 93.881045 
L 199.922495 93.085668 
L 202.017157 92.290292 
L 204.111818 91.494915 
L 206.206479 90.699538 
L 208.30114 89.904161 
L 210.395802 89.108785 
L 212.490463 88.313408 
L 214.585124 87.518031 
L 216.679785 86.722655 
L 218.774446 85.927278 
L 220.869108 85.131901 
L 222.963769 84.336524 
L 225.05843 83.541148 
L 227.153091 82.745771 
L 229.247753 81.950394 
L 231.342414 81.155018 
L 233.437075 80.359641 
L 235.531736 79.564264 
L 237.626398 78.768887 
L 239.721059 77.973511 
L 241.81572 77.178134 
L 243.910381 76.382757 
L 246.005043 75.587381 
L 248.099704 74.792004 
L 250.194365 73.996627 
L 252.289026 73.20125 
" clip-path="url(#p86b9ad06ce)" style="fill: none; stroke: #000000; stroke-opacity: 0.8; stroke-width: 1.5; stroke-linecap: round"/>
   </g>
   <g id="patch_3">
    <path d="M 34.54899 198.093912 
L 34.54899 18.959459 
" style="fill: none; stroke: #262626; stroke-linejoin: miter; stroke-linecap: square"/>
   </g>
   <g id="patch_4">
    <path d="M 34.54899 198.093912 
L 262.6576 198.093912 
" style="fill: none; stroke: #262626; stroke-linejoin: miter; stroke-linecap: square"/>
   </g>
   <g id="text_9">
    <text style="font-size: 8px; font-family: 'Arial', 'DejaVu Sans', 'Liberation Sans', 'Bitstream Vera Sans', sans-serif; text-anchor: end; fill: #262626; opacity: 0.7" x="45.494407" y="138.761319" transform="rotate(-0 45.494407 138.761319)">P1</text>
   </g>
   <g id="text_10">
    <text style="font-size: 8px; font-family: 'Arial', 'DejaVu Sans', 'Liberation Sans', 'Bitstream Vera Sans', sans-serif; text-anchor: end; fill: #262626; opacity: 0.7" x="67.613895" y="133.516414" transform="rotate(-0 67.613895 133.516414)">P2</text>
   </g>
   <g id="text_11">
    <text style="font-size: 8px; font-family: 'Arial', 'DejaVu Sans', 'Liberation Sans', 'Bitstream Vera Sans', sans-serif; text-anchor: end; fill: #262626; opacity: 0.7" x="124.294384" y="109.040191" transform="rotate(-0 124.294384 109.040191)">P3</text>
   </g>
   <g id="text_12">
    <text style="font-size: 8px; font-family: 'Arial', 'DejaVu Sans', 'Liberation Sans', 'Bitstream Vera Sans', sans-serif; text-anchor: end; fill: #262626; opacity: 0.7" x="231.979517" y="27.101934" transform="rotate(-0 231.979517 27.101934)">P4</text>
   </g>
   <g id="text_13">
    <text style="font-size: 8px; font-family: 'Arial', 'DejaVu Sans', 'Liberation Sans', 'Bitstream Vera Sans', sans-serif; text-anchor: end; fill: #262626; opacity: 0.7" x="252.289026" y="37.609583" transform="rotate(-0 252.289026 37.609583)">P5</text>
   </g>
   <g id="text_14">
    <text style="font-size: 8px; font-family: 'Arial', 'DejaVu Sans', 'Liberation Sans', 'Bitstream Vera Sans', sans-serif; text-anchor: end; fill: #262626; opacity: 0.7" x="239.265947" y="106.417739" transform="rotate(-0 239.265947 106.417739)">P6</text>
   </g>
   <g id="text_15">
    <text style="font-size: 8px; font-family: 'Arial', 'DejaVu Sans', 'Liberation Sans', 'Bitstream Vera Sans', sans-serif; text-anchor: end; fill: #262626; opacity: 0.7" x="187.172417" y="145.611807" transform="rotate(-0 187.172417 145.611807)">P7</text>
   </g>
   <g id="text_16">
    <text style="font-size: 8px; font-family: 'Arial', 'DejaVu Sans', 'Liberation Sans', 'Bitstream Vera Sans', sans-serif; text-anchor: end; fill: #262626; opacity: 0.7" x="176.066533" y="151.035109" transform="rotate(-0 176.066533 151.035109)">P8</text>
   </g>
   <g id="text_17">
    <text style="font-size: 8px; font-family: 'Arial', 'DejaVu Sans', 'Liberation Sans', 'Bitstream Vera Sans', sans-serif; text-anchor: end; fill: #262626; opacity: 0.7" x="44.917563" y="152.034139" transform="rotate(-0 44.917563 152.034139)">P9</text>
   </g>
   <g id="text_18">
    <g id="patch_5">
     <path d="M 45.95442 43.129931 
L 90.34692 43.129931 
Q 93.94692 43.129931 93.94692 39.529931 
L 93.94692 27.916181 
Q 93.94692 24.316181 90.34692 24.316181 
L 45.95442 24.316181 
Q 42.35442 24.316181 42.35442 27.916181 
L 42.35442 39.529931 
Q 42.35442 43.129931 45.95442 43.129931 
z
" style="fill: #ffffff; opacity: 0.9; stroke: #808080; stroke-width: 0.8; stroke-linejoin: miter"/>
    </g>
    <text style="font-size: 12px; font-family: 'Arial', 'DejaVu Sans', 'Liberation Sans', 'Bitstream Vera Sans', sans-serif; text-anchor: start; fill: #262626" x="45.95442" y="37.034306" transform="rotate(-0 45.95442 37.034306)">ρ=0.70</text>
   </g>
   <g id="text_19">
    <text style="font-size: 13px; font-family: 'Arial', 'DejaVu Sans', 'Liberation Sans', 'Bitstream Vera Sans', sans-serif; text-anchor: middle; fill: #262626" x="148.603295" y="12.959459" transform="rotate(-0 148.603295 12.959459)">CDR3α</text>
   </g>
  </g>
  <g id="axes_2">
   <g id="patch_6">
    <path d="M 273.45808 198.093912 
L 501.566689 198.093912 
L 501.566689 18.959459 
L 273.45808 18.959459 
z
" style="fill: #ffffff"/>
   </g>
   <g id="matplotlib.axis_3">
    <g id="xtick_5">
     <g id="line2d_9">
      <g>
       <use xlink:href="#m9f55d4eed4" x="283.501192" y="198.093912" style="fill: #262626; stroke: #262626"/>
      </g>
     </g>
     <g id="text_20">
      <text style="font-size: 12px; font-family: 'Arial', 'DejaVu Sans', 'Liberation Sans', 'Bitstream Vera Sans', sans-serif; text-anchor: middle; fill: #262626" x="283.501192" y="215.512037" transform="rotate(-0 283.501192 215.512037)">0.0</text>
     </g>
    </g>
    <g id="xtick_6">
     <g id="line2d_10">
      <g>
       <use xlink:href="#m9f55d4eed4" x="341.322508" y="198.093912" style="fill: #262626; stroke: #262626"/>
      </g>
     </g>
     <g id="text_21">
      <text style="font-size: 12px; font-family: 'Arial', 'DejaVu Sans', 'Liberation Sans', 'Bitstream Vera Sans', sans-serif; text-anchor: middle; fill: #262626" x="341.322508" y="215.512037" transform="rotate(-0 341.322508 215.512037)">0.1</text>
     </g>
    </g>
    <g id="xtick_7">
     <g id="line2d_11">
      <g>
       <use xlink:href="#m9f55d4eed4" x="399.143825" y="198.093912" style="fill: #262626; stroke: #262626"/>
      </g>
     </g>
     <g id="text_22">
      <text style="font-size: 12px; font-family: 'Arial', 'DejaVu Sans', 'Liberation Sans', 'Bitstream Vera Sans', sans-serif; text-anchor: middle; fill: #262626" x="399.143825" y="215.512037" transform="rotate(-0 399.143825 215.512037)">0.2</text>
     </g>
    </g>
    <g id="xtick_8">
     <g id="line2d_12">
      <g>
       <use xlink:href="#m9f55d4eed4" x="456.965141" y="198.093912" style="fill: #262626; stroke: #262626"/>
      </g>
     </g>
     <g id="text_23">
      <text style="font-size: 12px; font-family: 'Arial', 'DejaVu Sans', 'Liberation Sans', 'Bitstream Vera Sans', sans-serif; text-anchor: middle; fill: #262626" x="456.965141" y="215.512037" transform="rotate(-0 456.965141 215.512037)">0.3</text>
     </g>
    </g>
   </g>
   <g id="matplotlib.axis_4">
    <g id="ytick_4">
     <g id="line2d_13">
      <g>
       <use xlink:href="#m9504ea2ea0" x="273.45808" y="152.034139" style="fill: #262626; stroke: #262626"/>
      </g>
     </g>
    </g>
    <g id="ytick_5">
     <g id="line2d_14">
      <g>
       <use xlink:href="#m9504ea2ea0" x="273.45808" y="105.008394" style="fill: #262626; stroke: #262626"/>
      </g>
     </g>
    </g>
    <g id="ytick_6">
     <g id="line2d_15">
      <g>
       <use xlink:href="#m9504ea2ea0" x="273.45808" y="57.982649" style="fill: #262626; stroke: #262626"/>
      </g>
     </g>
    </g>
   </g>
   <g id="PathCollection_2">
    <g clip-path="url(#p1df1860276)">
     <use xlink:href="#m627cd3c125" x="284.403496" y="152.034139" style="fill-opacity: 0.8; stroke: #000000; stroke-opacity: 0.8"/>
     <use xlink:href="#m627cd3c125" x="306.522985" y="151.998459" style="fill-opacity: 0.8; stroke: #000000; stroke-opacity: 0.8"/>
     <use xlink:href="#m627cd3c125" x="363.203474" y="149.376007" style="fill-opacity: 0.8; stroke: #000000; stroke-opacity: 0.8"/>
     <use xlink:href="#m627cd3c125" x="470.888607" y="121.991895" style="fill-opacity: 0.8; stroke: #000000; stroke-opacity: 0.8"/>
     <use xlink:href="#m627cd3c125" x="491.198116" y="65.778647" style="fill-opacity: 0.8; stroke: #000000; stroke-opacity: 0.8"/>
     <use xlink:href="#m627cd3c125" x="478.175037" y="60.301824" style="fill-opacity: 0.8; stroke: #000000; stroke-opacity: 0.8"/>
     <use xlink:href="#m627cd3c125" x="426.081507" y="43.139925" style="fill-opacity: 0.8; stroke: #000000; stroke-opacity: 0.8"/>
     <use xlink:href="#m627cd3c125" x="414.975622" y="79.996977" style="fill-opacity: 0.8; stroke: #000000; stroke-opacity: 0.8"/>
     <use xlink:href="#m627cd3c125" x="283.826653" y="134.604642" style="fill-opacity: 0.8; stroke: #000000; stroke-opacity: 0.8"/>
    </g>
   </g>
   <g id="FillBetweenPolyCollection_2">
    <defs>
     <path id="m7cf5e26837" d="M 283.826653 -113.644397 
L 283.826653 -68.24028 
L 285.921314 -69.380402 
L 288.015975 -70.303416 
L 290.110636 -71.283858 
L 292.205298 -72.311752 
L 294.299959 -73.398425 
L 296.39462 -74.428718 
L 298.489281 -75.401143 
L 300.583943 -76.549173 
L 302.678604 -77.72897 
L 304.773265 -78.908767 
L 306.867926 -80.089834 
L 308.962588 -81.282135 
L 311.057249 -82.618024 
L 313.15191 -83.707412 
L 315.246571 -84.836377 
L 317.341233 -86.082256 
L 319.435894 -87.236106 
L 321.530555 -88.163221 
L 323.625216 -89.026193 
L 325.719878 -89.853892 
L 327.814539 -90.627296 
L 329.9092 -91.400699 
L 332.003861 -92.169865 
L 334.098523 -93.112007 
L 336.193184 -94.222149 
L 338.287845 -95.299999 
L 340.382506 -96.145079 
L 342.477168 -97.139209 
L 344.571829 -98.027668 
L 346.66649 -99.047438 
L 348.761151 -100.071426 
L 350.855813 -100.733599 
L 352.950474 -101.834201 
L 355.045135 -102.42267 
L 357.139796 -103.006792 
L 359.234458 -103.875526 
L 361.329119 -104.625464 
L 363.42378 -105.616767 
L 365.518441 -106.489427 
L 367.613103 -107.364753 
L 369.707764 -107.984189 
L 371.802425 -108.729592 
L 373.897086 -109.655142 
L 375.991748 -110.299355 
L 378.086409 -111.078433 
L 380.18107 -111.564039 
L 382.275731 -112.091854 
L 384.370392 -112.911611 
L 386.465054 -113.731368 
L 388.559715 -114.439517 
L 390.654376 -115.006925 
L 392.749037 -115.672522 
L 394.843699 -116.558565 
L 396.93836 -117.037035 
L 399.033021 -117.597703 
L 401.127682 -118.081062 
L 403.222344 -118.570622 
L 405.317005 -119.192894 
L 407.411666 -119.932431 
L 409.506327 -120.57436 
L 411.600989 -121.187629 
L 413.69565 -121.731136 
L 415.790311 -122.207443 
L 417.884972 -122.823612 
L 419.979634 -123.369635 
L 422.074295 -123.851462 
L 424.168956 -124.449955 
L 426.263617 -124.838591 
L 428.358279 -125.257144 
L 430.45294 -125.951004 
L 432.547601 -126.567715 
L 434.642262 -127.181021 
L 436.736924 -127.544115 
L 438.831585 -127.883849 
L 440.926246 -128.379765 
L 443.020907 -128.933206 
L 445.115569 -129.489367 
L 447.21023 -130.045528 
L 449.304891 -130.483992 
L 451.399552 -130.892012 
L 453.494214 -131.300033 
L 455.588875 -131.760055 
L 457.683536 -132.281536 
L 459.778197 -132.803784 
L 461.872859 -133.323212 
L 463.96752 -133.842641 
L 466.062181 -134.36207 
L 468.156842 -134.881498 
L 470.251504 -135.403827 
L 472.346165 -135.843853 
L 474.440826 -136.281784 
L 476.535487 -136.878107 
L 478.630149 -137.344598 
L 480.72481 -137.270492 
L 482.819471 -137.628909 
L 484.914132 -138.023149 
L 487.008793 -138.503281 
L 489.103455 -139.041982 
L 491.198116 -139.580684 
L 491.198116 -211.945628 
L 491.198116 -211.945628 
L 489.103455 -210.736143 
L 487.008793 -209.500712 
L 484.914132 -208.212003 
L 482.819471 -207.097663 
L 480.72481 -205.902635 
L 478.630149 -204.696852 
L 476.535487 -203.417492 
L 474.440826 -202.276164 
L 472.346165 -201.069904 
L 470.251504 -199.863645 
L 468.156842 -198.657385 
L 466.062181 -197.451126 
L 463.96752 -196.244826 
L 461.872859 -195.034929 
L 459.778197 -193.825031 
L 457.683536 -192.615134 
L 455.588875 -191.405237 
L 453.494214 -190.195339 
L 451.399552 -188.969871 
L 449.304891 -187.695095 
L 447.21023 -186.420318 
L 445.115569 -185.145542 
L 443.020907 -183.870765 
L 440.926246 -182.595989 
L 438.831585 -181.738354 
L 436.736924 -180.918143 
L 434.642262 -180.071164 
L 432.547601 -178.694562 
L 430.45294 -177.31796 
L 428.358279 -175.941358 
L 426.263617 -175.782789 
L 424.168956 -174.599432 
L 422.074295 -173.415654 
L 419.979634 -172.231877 
L 417.884972 -170.945017 
L 415.790311 -169.645925 
L 413.69565 -168.346833 
L 411.600989 -167.043999 
L 409.506327 -165.863831 
L 407.411666 -164.423477 
L 405.317005 -162.869645 
L 403.222344 -161.375929 
L 401.127682 -160.270122 
L 399.033021 -159.222567 
L 396.93836 -157.811271 
L 394.843699 -156.613954 
L 392.749037 -155.327345 
L 390.654376 -154.24629 
L 388.559715 -153.495907 
L 386.465054 -152.333136 
L 384.370392 -151.094696 
L 382.275731 -149.864077 
L 380.18107 -148.779665 
L 378.086409 -147.934038 
L 375.991748 -146.999955 
L 373.897086 -145.858555 
L 371.802425 -144.910608 
L 369.707764 -143.89549 
L 367.613103 -142.788978 
L 365.518441 -142.129244 
L 363.42378 -141.221199 
L 361.329119 -140.192731 
L 359.234458 -139.095375 
L 357.139796 -138.322378 
L 355.045135 -137.381807 
L 352.950474 -136.72501 
L 350.855813 -136.25223 
L 348.761151 -135.393598 
L 346.66649 -134.655779 
L 344.571829 -133.697491 
L 342.477168 -132.744884 
L 340.382506 -131.793256 
L 338.287845 -130.836159 
L 336.193184 -129.877705 
L 334.098523 -128.999783 
L 332.003861 -128.502394 
L 329.9092 -127.55962 
L 327.814539 -127.058257 
L 325.719878 -126.703596 
L 323.625216 -126.346618 
L 321.530555 -125.791063 
L 319.435894 -124.976755 
L 317.341233 -124.155436 
L 315.246571 -123.329164 
L 313.15191 -122.355135 
L 311.057249 -121.281578 
L 308.962588 -120.208021 
L 306.867926 -119.320429 
L 304.773265 -118.798498 
L 302.678604 -118.276568 
L 300.583943 -117.592466 
L 298.489281 -116.951377 
L 296.39462 -116.444057 
L 294.299959 -115.936737 
L 292.205298 -115.429417 
L 290.110636 -114.922097 
L 288.015975 -114.433932 
L 285.921314 -114.039164 
L 283.826653 -113.644397 
z
" style="stroke: #ffffff; stroke-opacity: 0.15; stroke-width: 0.8"/>
    </defs>
    <g clip-path="url(#p1df1860276)">
     <use xlink:href="#m7cf5e26837" x="0" y="240.944882" style="fill-opacity: 0.15; stroke: #ffffff; stroke-opacity: 0.15; stroke-width: 0.8"/>
    </g>
   </g>
   <g id="line2d_16">
    <path d="M 283.826653 149.453178 
L 285.921314 148.615483 
L 288.015975 147.777788 
L 290.110636 146.940094 
L 292.205298 146.102399 
L 294.299959 145.264704 
L 296.39462 144.427009 
L 298.489281 143.589314 
L 300.583943 142.75162 
L 302.678604 141.913925 
L 304.773265 141.07623 
L 306.867926 140.238535 
L 308.962588 139.40084 
L 311.057249 138.563146 
L 313.15191 137.725451 
L 315.246571 136.887756 
L 317.341233 136.050061 
L 319.435894 135.212366 
L 321.530555 134.374671 
L 323.625216 133.536977 
L 325.719878 132.699282 
L 327.814539 131.861587 
L 329.9092 131.023892 
L 332.003861 130.186197 
L 334.098523 129.348503 
L 336.193184 128.510808 
L 338.287845 127.673113 
L 340.382506 126.835418 
L 342.477168 125.997723 
L 344.571829 125.160029 
L 346.66649 124.322334 
L 348.761151 123.484639 
L 350.855813 122.646944 
L 352.950474 121.809249 
L 355.045135 120.971555 
L 357.139796 120.13386 
L 359.234458 119.296165 
L 361.329119 118.45847 
L 363.42378 117.620775 
L 365.518441 116.783081 
L 367.613103 115.945386 
L 369.707764 115.107691 
L 371.802425 114.269996 
L 373.897086 113.432301 
L 375.991748 112.594607 
L 378.086409 111.756912 
L 380.18107 110.919217 
L 382.275731 110.081522 
L 384.370392 109.243827 
L 386.465054 108.406132 
L 388.559715 107.568438 
L 390.654376 106.730743 
L 392.749037 105.893048 
L 394.843699 105.055353 
L 396.93836 104.217658 
L 399.033021 103.379964 
L 401.127682 102.542269 
L 403.222344 101.704574 
L 405.317005 100.866879 
L 407.411666 100.029184 
L 409.506327 99.19149 
L 411.600989 98.353795 
L 413.69565 97.5161 
L 415.790311 96.678405 
L 417.884972 95.84071 
L 419.979634 95.003016 
L 422.074295 94.165321 
L 424.168956 93.327626 
L 426.263617 92.489931 
L 428.358279 91.652236 
L 430.45294 90.814542 
L 432.547601 89.976847 
L 434.642262 89.139152 
L 436.736924 88.301457 
L 438.831585 87.463762 
L 440.926246 86.626068 
L 443.020907 85.788373 
L 445.115569 84.950678 
L 447.21023 84.112983 
L 449.304891 83.275288 
L 451.399552 82.437594 
L 453.494214 81.599899 
L 455.588875 80.762204 
L 457.683536 79.924509 
L 459.778197 79.086814 
L 461.872859 78.249119 
L 463.96752 77.411425 
L 466.062181 76.57373 
L 468.156842 75.736035 
L 470.251504 74.89834 
L 472.346165 74.060645 
L 474.440826 73.222951 
L 476.535487 72.385256 
L 478.630149 71.547561 
L 480.72481 70.709866 
L 482.819471 69.872171 
L 484.914132 69.034477 
L 487.008793 68.196782 
L 489.103455 67.359087 
L 491.198116 66.521392 
" clip-path="url(#p1df1860276)" style="fill: none; stroke: #000000; stroke-opacity: 0.8; stroke-width: 1.5; stroke-linecap: round"/>
   </g>
   <g id="patch_7">
    <path d="M 273.45808 198.093912 
L 273.45808 18.959459 
" style="fill: none; stroke: #262626; stroke-linejoin: miter; stroke-linecap: square"/>
   </g>
   <g id="patch_8">
    <path d="M 273.45808 198.093912 
L 501.566689 198.093912 
" style="fill: none; stroke: #262626; stroke-linejoin: miter; stroke-linecap: square"/>
   </g>
   <g id="text_24">
    <text style="font-size: 8px; font-family: 'Arial', 'DejaVu Sans', 'Liberation Sans', 'Bitstream Vera Sans', sans-serif; text-anchor: end; fill: #262626; opacity: 0.7" x="284.403496" y="152.034139" transform="rotate(-0 284.403496 152.034139)">P1</text>
   </g>
   <g id="text_25">
    <text style="font-size: 8px; font-family: 'Arial', 'DejaVu Sans', 'Liberation Sans', 'Bitstream Vera Sans', sans-serif; text-anchor: end; fill: #262626; opacity: 0.7" x="306.522985" y="151.998459" transform="rotate(-0 306.522985 151.998459)">P2</text>
   </g>
   <g id="text_26">
    <text style="font-size: 8px; font-family: 'Arial', 'DejaVu Sans', 'Liberation Sans', 'Bitstream Vera Sans', sans-serif; text-anchor: end; fill: #262626; opacity: 0.7" x="363.203474" y="149.376007" transform="rotate(-0 363.203474 149.376007)">P3</text>
   </g>
   <g id="text_27">
    <text style="font-size: 8px; font-family: 'Arial', 'DejaVu Sans', 'Liberation Sans', 'Bitstream Vera Sans', sans-serif; text-anchor: end; fill: #262626; opacity: 0.7" x="470.888607" y="121.991895" transform="rotate(-0 470.888607 121.991895)">P4</text>
   </g>
   <g id="text_28">
    <text style="font-size: 8px; font-family: 'Arial', 'DejaVu Sans', 'Liberation Sans', 'Bitstream Vera Sans', sans-serif; text-anchor: end; fill: #262626; opacity: 0.7" x="491.198116" y="65.778647" transform="rotate(-0 491.198116 65.778647)">P5</text>
   </g>
   <g id="text_29">
    <text style="font-size: 8px; font-family: 'Arial', 'DejaVu Sans', 'Liberation Sans', 'Bitstream Vera Sans', sans-serif; text-anchor: end; fill: #262626; opacity: 0.7" x="478.175037" y="60.301824" transform="rotate(-0 478.175037 60.301824)">P6</text>
   </g>
   <g id="text_30">
    <text style="font-size: 8px; font-family: 'Arial', 'DejaVu Sans', 'Liberation Sans', 'Bitstream Vera Sans', sans-serif; text-anchor: end; fill: #262626; opacity: 0.7" x="426.081507" y="43.139925" transform="rotate(-0 426.081507 43.139925)">P7</text>
   </g>
   <g id="text_31">
    <text style="font-size: 8px; font-family: 'Arial', 'DejaVu Sans', 'Liberation Sans', 'Bitstream Vera Sans', sans-serif; text-anchor: end; fill: #262626; opacity: 0.7" x="414.975622" y="79.996977" transform="rotate(-0 414.975622 79.996977)">P8</text>
   </g>
   <g id="text_32">
    <text style="font-size: 8px; font-family: 'Arial', 'DejaVu Sans', 'Liberation Sans', 'Bitstream Vera Sans', sans-serif; text-anchor: end; fill: #262626; opacity: 0.7" x="283.826653" y="134.604642" transform="rotate(-0 283.826653 134.604642)">P9</text>
   </g>
   <g id="text_33">
    <g id="patch_9">
     <path d="M 284.86351 43.129931 
L 329.25601 43.129931 
Q 332.85601 43.129931 332.85601 39.529931 
L 332.85601 27.916181 
Q 332.85601 24.316181 329.25601 24.316181 
L 284.86351 24.316181 
Q 281.26351 24.316181 281.26351 27.916181 
L 281.26351 39.529931 
Q 281.26351 43.129931 284.86351 43.129931 
z
" style="fill: #ffffff; opacity: 0.9; stroke: #808080; stroke-width: 0.8; stroke-linejoin: miter"/>
    </g>
    <text style="font-size: 12px; font-family: 'Arial', 'DejaVu Sans', 'Liberation Sans', 'Bitstream Vera Sans', sans-serif; text-anchor: start; fill: #262626" x="284.86351" y="37.034306" transform="rotate(-0 284.86351 37.034306)">ρ=0.75</text>
   </g>
   <g id="text_34">
    <text style="font-size: 13px; font-family: 'Arial', 'DejaVu Sans', 'Liberation Sans', 'Bitstream Vera Sans', sans-serif; text-anchor: middle; fill: #262626" x="387.512384" y="12.959459" transform="rotate(-0 387.512384 12.959459)">CDR3β</text>
   </g>
  </g>
  <g id="text_35">
   <text style="font-size: 14.4px; font-family: 'Arial', 'DejaVu Sans', 'Liberation Sans', 'Bitstream Vera Sans', sans-serif; text-anchor: middle; fill: #262626" x="252.283465" y="234.949892" transform="rotate(-0 252.283465 234.949892)">Mean Attention Weight</text>
  </g>
 </g>
 <defs>
  <clipPath id="p86b9ad06ce">
   <rect x="34.54899" y="18.959459" width="228.10861" height="179.134453"/>
  </clipPath>
  <clipPath id="p1df1860276">
   <rect x="273.45808" y="18.959459" width="228.10861" height="179.134453"/>
  </clipPath>
 </defs>
</svg>
